Coordinates
version=1
nRows=24
nColumns=24
inDegrees=yes

Units are S.I. units (second, meters, Newtons, ...)
Angles are in degrees.

endheader
time	pelvis_tilt	pelvis_list	pelvis_rotation	pelvis_tx	pelvis_ty	pelvis_tz	hip_flexion_r	hip_adduction_r	hip_rotation_r	knee_angle_r	ankle_angle_r	subtalar_angle_r	mtp_angle_r	hip_flexion_l	hip_adduction_l	hip_rotation_l	knee_angle_l	ankle_angle_l	subtalar_angle_l	mtp_angle_l	lumbar_extension	lumbar_bending	lumbar_rotation
      0.64200000	     -2.61108025	     -5.09661678	      3.76834648	     -0.41430034	      0.90178684	      0.32787679	     14.88167390	     10.27627371	     -4.05979388	    -25.07915143	     12.67440245	     -2.53924664	      1.59766985	     14.84572951	     -9.71569133	     -5.20886050	    -73.13290752	     -0.07158555	     -7.92464988	      0.19523357	     -5.17870452	      6.44541468	     -0.57488731
      0.64616667	     -2.80063909	     -4.95378943	      3.77367890	     -0.40910327	      0.90263084	      0.32796817	     14.44659499	     10.15838632	     -3.95955340	    -24.57209619	     12.70083154	     -2.49475266	      1.59816354	     15.82861609	     -9.45110209	     -5.20771214	    -73.26031738	      0.28441160	     -8.11590832	      0.10655887	     -5.00232967	      6.28768443	     -0.41663562
      0.65033333	     -2.99919094	     -4.78971300	      3.74874199	     -0.40389417	      0.90345873	      0.32807451	     14.01965492	     10.02246406	     -3.82480657	    -24.06835492	     12.73784948	     -2.45855457	      1.60023311	     16.78911139	     -9.15817301	     -5.24046940	    -73.28855400	      0.59709608	     -8.26282914	     -0.07147161	     -4.80948181	      6.11013233	     -0.18598320
      0.65450000	     -3.11572472	     -4.62916215	      3.72650645	     -0.39862237	      0.90440392	      0.32817293	     13.48119331	      9.89187120	     -3.71900997	    -23.52278017	     12.76979476	     -2.37413393	      1.60095746	     17.62770444	     -8.88156739	     -5.29551142	    -73.21851392	      0.96295025	     -8.38905108	     -0.10520715	     -4.71263755	      5.92302480	     -0.09618762
      0.65866667	     -3.31333193	     -4.46147472	      3.67632288	     -0.39343015	      0.90518055	      0.32829651	     13.06091780	      9.75264496	     -3.57491176	    -23.02829966	     12.76315074	     -2.35321203	      1.60302714	     18.55104198	     -8.58153526	     -5.35495410	    -73.09208104	      1.30506409	     -8.50004028	     -0.23757037	     -4.54394870	      5.73082104	      0.20282961
      0.66283333	     -3.43109872	     -4.28045583	      3.61518132	     -0.38817354	      0.90608043	      0.32840882	     12.53387180	      9.60040388	     -3.43973366	    -22.50128855	     12.74750843	     -2.27028021	      1.60416539	     19.34235914	     -8.27577104	     -5.44623115	    -72.85682749	      1.68608217	     -8.58660900	     -0.29516834	     -4.47096874	      5.53505117	      0.35344790
      0.66700000	     -3.55649547	     -4.09483352	      3.52936996	     -0.38289986	      0.90694879	      0.32856742	     12.01140225	      9.45050705	     -3.26784400	    -21.96855779	     12.75511826	     -2.22931722	      1.61084606	     20.11569844	     -7.97742272	     -5.56962719	    -72.53712492	      2.00735645	     -8.62300138	     -0.41681768	     -4.37030356	      5.32742093	      0.68424314
      0.67116667	     -3.65077562	     -3.90348306	      3.44142665	     -0.37762600	      0.90784235	      0.32870156	     11.45533786	      9.28748696	     -3.12169806	    -21.43295125	     12.72603023	     -2.13474104	      1.61339804	     20.83161103	     -7.67026792	     -5.69812319	    -72.13777495	      2.36331454	     -8.66088101	     -0.45793212	     -4.32053290	      5.11350901	      0.82049458
      0.67533333	     -3.72409434	     -3.71032212	      3.32660273	     -0.37233297	      0.90873660	      0.32889291	     10.87103128	      9.13277958	     -2.93138450	    -20.88702111	     12.72043999	     -2.09022253	      1.62313587	     21.49509086	     -7.38189152	     -5.86541586	    -71.65894783	      2.68368157	     -8.64686897	     -0.53991945	     -4.29103948	      4.88916600	      1.16534284
      0.67950000	     -3.79847591	     -3.51003734	      3.20848617	     -0.36705401	      0.90960111	      0.32904924	     10.29775762	      8.95861688	     -2.77093728	    -20.35465080	     12.66790869	     -1.99134522	      1.62749795	     22.13907968	     -7.07536724	     -6.02767264	    -71.10547554	      3.02259205	     -8.64251152	     -0.56850508	     -4.26205470	      4.67602860	      1.31784998
      0.68366667	     -3.82213541	     -3.31457031	      3.07140725	     -0.36173911	      0.91051054	      0.32926498	      9.65318041	      8.80079918	     -2.57217962	    -19.79069410	     12.65408883	     -1.93940467	      1.64201520	     22.69768030	     -6.80174002	     -6.22765695	    -70.47626340	      3.32644385	     -8.59176775	     -0.61912449	     -4.28893172	      4.44967643	      1.67128225
      0.68783333	     -3.86862223	     -3.10837682	      2.92196693	     -0.35646341	      0.91134840	      0.32945991	      9.05583885	      8.61895668	     -2.39621714	    -19.26265482	     12.57588668	     -1.84329250	      1.64961688	     23.26174962	     -6.50646338	     -6.42579028	    -69.77776385	      3.64811218	     -8.54183188	     -0.63816267	     -4.29325680	      4.22566013	      1.85488864
      0.69200000	     -3.85640915	     -2.92228438	      2.76927113	     -0.35114824	      0.91222712	      0.32969179	      8.37153162	      8.46774490	     -2.19135967	    -18.68590468	     12.54827138	     -1.78853246	      1.67038600	     23.74101985	     -6.25660336	     -6.64201242	    -69.01778521	      3.93596338	     -8.45727963	     -0.66834492	     -4.36364070	      4.01257878	      2.21398028
      0.69616667	     -3.85081104	     -2.72732558	      2.60378152	     -0.34586059	      0.91305302	      0.32992043	      7.71088684	      8.29827215	     -1.99746714	    -18.13594405	     12.48908736	     -1.71414952	      1.69122109	     24.20578295	     -5.99591383	     -6.86441825	    -68.19088668	      4.22134608	     -8.36836824	     -0.68664417	     -4.42776133	      3.79316583	      2.48548778
      0.70033333	     -3.82846836	     -2.53940471	      2.43151276	     -0.34057785	      0.91385627	      0.33015782	      7.03260962	      8.13390628	     -1.79932705	    -17.58016424	     12.41987384	     -1.63614690	      1.71572605	     24.63361745	     -5.74953804	     -7.09219202	    -67.30421138	      4.49682550	     -8.26752329	     -0.69819392	     -4.51209053	      3.58347818	      2.76862949
      0.70450000	     -3.79530495	     -2.35725219	      2.25179408	     -0.33530143	      0.91462100	      0.33040782	      6.34543505	      7.97273273	     -1.60072214	    -17.02394453	     12.34315594	     -1.55724158	      1.74448737	     25.03106227	     -5.51570273	     -7.32508337	    -66.36007813	      4.75921722	     -8.15198011	     -0.70331642	     -4.60861986	      3.37705019	      3.05171988
      0.70866667	     -3.77393327	     -2.16497259	      2.06169640	     -0.33005841	      0.91532252	      0.33063538	      5.69357166	      7.78857373	     -1.42307574	    -16.50677372	     12.24157093	     -1.45490170	      1.76269350	     25.41968197	     -5.26793695	     -7.56328018	    -65.34917669	      5.00532808	     -8.03500839	     -0.70120731	     -4.69610886	      3.16144753	      3.25095256
      0.71283333	     -3.69403257	     -2.01475231	      1.88431341	     -0.32478050	      0.91603621	      0.33089180	      4.94617681	      7.65690842	     -1.22064324	    -15.92002628	     12.19275642	     -1.38716350	      1.80113091	     25.73617900	     -5.08084200	     -7.78949179	    -64.30431238	      5.23157260	     -7.90239988	     -0.69571029	     -4.84791481	      2.99039143	      3.59751108
      0.71700000	     -3.66079331	     -1.83910366	      1.68249077	     -0.31955524	      0.91663537	      0.33113215	      4.29260225	      7.48171518	     -1.04881945	    -15.41425318	     12.08242924	     -1.27818900	      1.82376086	     26.07702720	     -4.86119418	     -8.03096907	    -63.18732978	      5.44560531	     -7.76999868	     -0.68809308	     -4.94605162	      2.79026652	      3.79636445
      0.72116667	     -3.58849589	     -1.68659341	      1.49097877	     -0.31431876	      0.91722562	      0.33137298	      3.58031697	      7.33082874	     -0.87413317	    -14.87082710	     12.00698892	     -1.17117202	      1.85246107	     26.36230537	     -4.67093642	     -8.25938195	    -62.02575636	      5.64161848	     -7.63193396	     -0.67802471	     -5.09106151	      2.61384704	      4.05458626
      0.72533333	     -3.52249025	     -1.54820719	      1.30162113	     -0.30910154	      0.91773420	      0.33160641	      2.88385079	      7.18907830	     -0.71366985	    -14.33864990	     11.93007165	     -1.05646979	      1.88260179	     26.64325917	     -4.49641344	     -8.47921221	    -60.82189779	      5.81855285	     -7.48999357	     -0.66639939	     -5.22577292	      2.45470987	      4.30276002
      0.72950000	     -3.44548925	     -1.42343863	      1.11202067	     -0.30389497	      0.91819045	      0.33183567	      2.17651890	      7.05788631	     -0.55342601	    -13.80516400	     11.86642560	     -0.94440550	      1.92047019	     26.89758415	     -4.33713215	     -8.69050188	    -59.57170786	      5.97749032	     -7.34722852	     -0.65201129	     -5.37183366	      2.31583096	      4.57135819
      0.73366667	     -3.38408841	     -1.30557328	      0.92325667	     -0.29869581	      0.91855851	      0.33205051	      1.49797541	      6.92560501	     -0.41685822	    -13.29118989	     11.79142853	     -0.81279433	      1.95717239	     27.15197681	     -4.18585556	     -8.89892698	    -58.27454816	      6.11844893	     -7.20040204	     -0.63796335	     -5.50532236	      2.17309146	      4.80304786
      0.73783333	     -3.29855174	     -1.21925948	      0.75078571	     -0.29349891	      0.91887564	      0.33224858	      0.78000511	      6.82614139	     -0.28385203	    -12.74659895	     11.76189160	     -0.68419693	      2.02155560	     27.37491714	     -4.06576532	     -9.08343493	    -56.94993367	      6.24865058	     -7.06161210	     -0.61569253	     -5.66479137	      2.07624978	      5.10230053
